<svg xmlns="http://www.w3.org/2000/svg" width="57.58" height="60" viewBox="0 0 57.58 60"><defs><style>.a{fill:#dbb562;}</style></defs><path class="a" d="M45.43,52.432v1.753a2.78,2.78,0,0,1-2.358,2.753l-.432,1.593A1.982,1.982,0,0,1,40.726,60H36.442a1.982,1.982,0,0,1-1.914-1.469l-.42-1.593a2.793,2.793,0,0,1-2.37-2.765V52.42a1.686,1.686,0,0,1,1.691-1.691H43.738A1.7,1.7,0,0,1,45.43,52.432ZM53.368,28.8A14.707,14.707,0,0,1,49.22,39.062a13.555,13.555,0,0,0-3.63,7.358,2.444,2.444,0,0,1-2.42,2.062H34a2.42,2.42,0,0,1-2.407-2.049,13.7,13.7,0,0,0-3.654-7.383A14.78,14.78,0,1,1,53.368,28.8ZM40.257,19.852a1.668,1.668,0,0,0-1.667-1.667A10.677,10.677,0,0,0,27.923,28.852a1.667,1.667,0,0,0,3.333,0,7.342,7.342,0,0,1,7.333-7.333A1.66,1.66,0,0,0,40.257,19.852ZM38.59,9.173a1.668,1.668,0,0,0,1.667-1.667V1.667a1.667,1.667,0,0,0-3.333,0v5.84A1.668,1.668,0,0,0,38.59,9.173ZM18.973,28.79a1.668,1.668,0,0,0-1.667-1.667h-5.84a1.667,1.667,0,1,0,0,3.333h5.84A1.66,1.66,0,0,0,18.973,28.79Zm46.741-1.667h-5.84a1.667,1.667,0,0,0,0,3.333h5.84a1.667,1.667,0,0,0,0-3.333ZM22.368,42.667,18.232,46.8a1.663,1.663,0,0,0,2.346,2.358l4.136-4.136a1.663,1.663,0,0,0-2.346-2.358ZM53.639,15.407a1.664,1.664,0,0,0,1.173-.481l4.136-4.136A1.667,1.667,0,1,0,56.59,8.432l-4.136,4.136a1.662,1.662,0,0,0,0,2.358A1.693,1.693,0,0,0,53.639,15.407Zm-31.272-.494a1.663,1.663,0,1,0,2.346-2.358L20.578,8.42a1.667,1.667,0,1,0-2.358,2.358ZM54.812,42.667a1.667,1.667,0,0,0-2.358,2.358L56.59,49.16A1.663,1.663,0,0,0,58.936,46.8Z" transform="translate(-9.8)"/></svg>