<svg xmlns="http://www.w3.org/2000/svg" width="26.25" height="30" viewBox="0 0 26.25 30"><defs><style>.a{fill:#dbb562;}</style></defs><path class="a" d="M23.438,0H2.813A2.884,2.884,0,0,0,0,2.813V27.188A2.884,2.884,0,0,0,2.813,30H23.438a2.884,2.884,0,0,0,2.813-2.812V2.813A2.884,2.884,0,0,0,23.438,0ZM7.5,25.5a.807.807,0,0,1-.75.75H4.5a.807.807,0,0,1-.75-.75V23.25a.807.807,0,0,1,.75-.75H6.75a.807.807,0,0,1,.75.75Zm0-7.5a.807.807,0,0,1-.75.75H4.5A.807.807,0,0,1,3.75,18V15.75A.807.807,0,0,1,4.5,15H6.75a.807.807,0,0,1,.75.75ZM15,25.5a.807.807,0,0,1-.75.75H12a.807.807,0,0,1-.75-.75V23.25A.807.807,0,0,1,12,22.5h2.25a.807.807,0,0,1,.75.75ZM15,18a.807.807,0,0,1-.75.75H12a.807.807,0,0,1-.75-.75V15.75A.807.807,0,0,1,12,15h2.25a.807.807,0,0,1,.75.75Zm7.5,7.5a.807.807,0,0,1-.75.75H19.5a.807.807,0,0,1-.75-.75V15.75A.807.807,0,0,1,19.5,15h2.25a.807.807,0,0,1,.75.75V25.5Zm0-15a.807.807,0,0,1-.75.75H4.5a.807.807,0,0,1-.75-.75v-6a.807.807,0,0,1,.75-.75H21.75a.807.807,0,0,1,.75.75Z"/></svg>