<svg xmlns="http://www.w3.org/2000/svg" width="10.5" height="12" viewBox="0 0 10.5 12"><defs><style>.a{fill:#5e460a;}</style></defs><path class="a" d="M0,10.875A1.125,1.125,0,0,0,1.125,12h8.25A1.125,1.125,0,0,0,10.5,10.875V4.5H0Zm1.5-4.5A.376.376,0,0,1,1.875,6h2.25a.376.376,0,0,1,.375.375v2.25A.376.376,0,0,1,4.125,9H1.875A.376.376,0,0,1,1.5,8.625ZM9.375,1.5H8.25V.375A.376.376,0,0,0,7.875,0h-.75A.376.376,0,0,0,6.75.375V1.5h-3V.375A.376.376,0,0,0,3.375,0h-.75A.376.376,0,0,0,2.25.375V1.5H1.125A1.125,1.125,0,0,0,0,2.625V3.75H10.5V2.625A1.125,1.125,0,0,0,9.375,1.5Z"/></svg>