<svg xmlns="http://www.w3.org/2000/svg" width="54.961" height="50" viewBox="0 0 54.961 50"><defs><style>.a{fill:#dbb562;}</style></defs><path class="a" d="M5.948,50.2l3.526,1.474V27.913L3.079,43.334A5.313,5.313,0,0,0,5.948,50.2Zm51.316-9.737L44.211,8.966a5.244,5.244,0,0,0-6.842-2.842L17.974,14.15a5.26,5.26,0,0,0-3.237,4.737,4.91,4.91,0,0,0,.395,2.105l13.053,31.5A5.257,5.257,0,0,0,33,55.729a5.444,5.444,0,0,0,2.026-.395L54.4,47.308a5.248,5.248,0,0,0,2.868-6.842ZM20.027,21.519a2.632,2.632,0,1,1,2.632-2.632A2.639,2.639,0,0,1,20.027,21.519ZM14.764,50.466a5.279,5.279,0,0,0,5.263,5.263h3.816L14.764,33.782Z" transform="translate(-2.698 -5.729)"/></svg>