<svg xmlns="http://www.w3.org/2000/svg" width="22" height="29.333" viewBox="0 0 22 29.333"><defs><style>.a{fill:#dbb562;}</style></defs><path class="a" d="M19.25,3.667H14.667a3.667,3.667,0,0,0-7.333,0H2.75A2.751,2.751,0,0,0,0,6.417V26.583a2.751,2.751,0,0,0,2.75,2.75h16.5A2.751,2.751,0,0,0,22,26.583V6.417A2.751,2.751,0,0,0,19.25,3.667ZM5.5,24.292a1.375,1.375,0,1,1,1.375-1.375A1.372,1.372,0,0,1,5.5,24.292Zm0-5.5a1.375,1.375,0,1,1,1.375-1.375A1.372,1.372,0,0,1,5.5,18.792Zm0-5.5a1.375,1.375,0,1,1,1.375-1.375A1.372,1.372,0,0,1,5.5,13.292Zm5.5-11A1.375,1.375,0,1,1,9.625,3.667,1.372,1.372,0,0,1,11,2.292Zm7.333,21.083a.46.46,0,0,1-.458.458H9.625a.46.46,0,0,1-.458-.458v-.917A.46.46,0,0,1,9.625,22h8.25a.46.46,0,0,1,.458.458Zm0-5.5a.46.46,0,0,1-.458.458H9.625a.46.46,0,0,1-.458-.458v-.917a.46.46,0,0,1,.458-.458h8.25a.46.46,0,0,1,.458.458Zm0-5.5a.46.46,0,0,1-.458.458H9.625a.46.46,0,0,1-.458-.458v-.917A.46.46,0,0,1,9.625,11h8.25a.46.46,0,0,1,.458.458Z"/></svg>