<svg xmlns="http://www.w3.org/2000/svg" width="159.1" height="55" viewBox="0 0 159.1 55"><defs><style>.a{fill:#fff;}</style></defs><path class="a" d="M58.2,129.924h3a.4.4,0,1,0,0-.8h-3a.429.429,0,0,0-.4.4C57.9,129.725,58,129.924,58.2,129.924Zm1.5,26.257a1.591,1.591,0,1,0,1.6,1.591A1.575,1.575,0,0,0,59.7,156.181ZM52,154.888H67.4V132.311H52Zm49.3-7.459a3.067,3.067,0,0,0-2,.7,3.449,3.449,0,0,0-1.2,1.89,3.408,3.408,0,0,0-.1.9V153.1a3.624,3.624,0,0,0,.9,2.486,2.9,2.9,0,0,0,2.3.995,2.936,2.936,0,0,0,2.6-1.293,5.873,5.873,0,0,0,.9-3.382,5.225,5.225,0,0,0-.9-3.183A2.665,2.665,0,0,0,101.3,147.429Zm54-.2a2.859,2.859,0,0,0-2.7,1.591,6.256,6.256,0,0,0-.8,3.183,5.881,5.881,0,0,0,.8,3.083,2.859,2.859,0,0,0,2.7,1.591,2.815,2.815,0,0,0,2.6-1.591,5.4,5.4,0,0,0,.8-3.183,5.631,5.631,0,0,0-.8-3.083A2.815,2.815,0,0,0,155.3,147.23Zm-39.3.2a3.067,3.067,0,0,0-2,.7,3.449,3.449,0,0,0-1.2,1.89,3.408,3.408,0,0,0-.1.9V153.1a3.624,3.624,0,0,0,.9,2.486,2.9,2.9,0,0,0,2.3.995,2.936,2.936,0,0,0,2.6-1.293,5.873,5.873,0,0,0,.9-3.382,5.225,5.225,0,0,0-.9-3.183A2.881,2.881,0,0,0,116,147.429Zm-30.6-4.774h0c-.2.8-.5,1.89-.9,3.481L83,150.91h5l-1.6-4.774C86.2,145.638,85.9,144.445,85.4,142.655Zm92.3,4.476a2.988,2.988,0,0,0-2.4,1.193,4.267,4.267,0,0,0-.9,2.288h6.2a4.341,4.341,0,0,0-.6-2.288A2.564,2.564,0,0,0,177.7,147.13ZM98.5,134v-1.293c-1.2,0-2.4.2-2.4,1.293a.9.9,0,0,0,1,.995A1.542,1.542,0,0,0,98.5,134Zm-16.2-4.277c-.2-.6-.3-1.193-.5-1.79h0a16.531,16.531,0,0,1-.5,1.79l-.7,2.288H83ZM189.7,116H44a6.682,6.682,0,0,0-6.7,6.664v41.673A6.682,6.682,0,0,0,44,171H189.7a6.682,6.682,0,0,0,6.7-6.664V122.664A6.682,6.682,0,0,0,189.7,116Zm-9.3,13.029a2.992,2.992,0,0,1,3,3.282c0,.3,0,.6-.1.7h-4.6a1.869,1.869,0,0,0,2.1,1.79,5.065,5.065,0,0,0,1.9-.3l.3,1.193a5.49,5.49,0,0,1-2.4.4,3.247,3.247,0,0,1-3.5-3.481A3.321,3.321,0,0,1,180.4,129.029Zm-27.4.2.1.995h0a2.66,2.66,0,0,1,2.2-1.193c1.2,0,2.4.8,2.4,2.884v4.078H156v-3.879c0-.995-.4-1.691-1.3-1.691a1.542,1.542,0,0,0-1.4.995c-.1.1-.1.4-.1.5v3.978h-1.7v-4.774a11.992,11.992,0,0,0-.1-1.989H153Zm-18.2-.2a2.992,2.992,0,0,1,3,3.282c0,.3,0,.6-.1.7h-4.6a1.869,1.869,0,0,0,2.1,1.79,5.065,5.065,0,0,0,1.9-.3l.3,1.193a5.49,5.49,0,0,1-2.4.4,3.535,3.535,0,0,1-.2-7.061Zm-7.1-2.884h1.7v9.946h-1.7ZM114,130.322a3.211,3.211,0,0,0-1.8.5l-.3-1.094a5.1,5.1,0,0,1,2.5-.6c2.2,0,2.8,1.392,2.8,2.884V134.5a7.507,7.507,0,0,0,.1,1.591h-1.6l-.1-.8h0a2.539,2.539,0,0,1-2,.9,2.053,2.053,0,0,1-2.2-1.989c0-1.691,1.5-2.586,4.1-2.586v-.1A1.305,1.305,0,0,0,114,130.322Zm-10.3-3.978a.9.9,0,1,1-1,.9A1.171,1.171,0,0,1,103.7,126.344Zm.9,2.884v6.863h-1.7v-6.863Zm-23.8-2.586H83l3.1,9.448H84.2l-.9-2.685h-3l-.8,2.685H77.7Zm-11.5,31.23a3,3,0,0,1-3,2.984h-13a3,3,0,0,1-3-2.984V129.128a3,3,0,0,1,3-2.984h13a3,3,0,0,1,3,2.984Zm20.9.7L88.5,153.2h-6l-1.6,5.371H77.8l5.9-18.3h3.7l6,18.3Zm.6-22.477H89.1l-2.5-6.863h1.9l1.1,3.481c.2.6.3,1.193.5,1.691h0a10.822,10.822,0,0,1,.5-1.691l1.1-3.481h1.8Zm3.6-1.89c0-1.691,1.5-2.586,4.1-2.586v-.1c0-.5-.2-1.193-1.4-1.193a3.211,3.211,0,0,0-1.8.5l-.3-1.094a5.1,5.1,0,0,1,2.5-.6c2.2,0,2.8,1.392,2.8,2.884V134.5a7.507,7.507,0,0,0,.1,1.591H98.8l-.1-.8h0a2.539,2.539,0,0,1-2,.9A2.086,2.086,0,0,1,94.4,134.2ZM106,157.175a5.309,5.309,0,0,1-4.1,1.691,4.036,4.036,0,0,1-3.8-1.89v6.962h-3V149.716c0-1.392,0-2.884-.1-4.376h2.6l.2,2.089h.1a4.964,4.964,0,0,1,4.5-2.387,4.66,4.66,0,0,1,3.9,1.89,7.514,7.514,0,0,1,1.6,4.873A8.32,8.32,0,0,1,106,157.175Zm3-21.085h-1.7v-9.946H109Zm11.6,21.085a5.309,5.309,0,0,1-4.1,1.691,4.036,4.036,0,0,1-3.8-1.89v6.962h-3V149.716c0-1.392,0-2.884-.1-4.376h2.6l.2,2.089h.1a4.964,4.964,0,0,1,4.5-2.387,4.66,4.66,0,0,1,3.9,1.89,7,7,0,0,1,1.6,4.873A8.32,8.32,0,0,1,120.6,157.175Zm2-20.986A2.319,2.319,0,0,1,120.4,135h0l-.1.995h-1.5c0-.5.1-1.193.1-1.89v-8.056h1.7v4.078h0a2.417,2.417,0,0,1,2.2-1.094c1.7,0,2.9,1.392,2.9,3.481C125.7,135,124.2,136.19,122.6,136.19Zm14.9,21.085a7.187,7.187,0,0,1-5,1.591,9.509,9.509,0,0,1-4.8-1.094l.7-2.486a7.922,7.922,0,0,0,4.3,1.094,4.048,4.048,0,0,0,2.6-.8,2.5,2.5,0,0,0,.9-1.989,2.71,2.71,0,0,0-.8-1.89,7.166,7.166,0,0,0-2.5-1.392c-3.2-1.193-4.8-2.984-4.8-5.271a4.619,4.619,0,0,1,1.7-3.68,6.588,6.588,0,0,1,4.5-1.392,8.752,8.752,0,0,1,4.2.9l-.7,2.387a6.737,6.737,0,0,0-3.5-.8,3.476,3.476,0,0,0-2.4.8,2.175,2.175,0,0,0-.7,1.691,2.484,2.484,0,0,0,.8,1.79,10.725,10.725,0,0,0,2.7,1.392,8.794,8.794,0,0,1,3.5,2.188,4.919,4.919,0,0,1,1.1,3.183A5.883,5.883,0,0,1,137.5,157.275Zm10.4-9.747h-3.3v6.465c0,1.591.6,2.486,1.7,2.486a4.913,4.913,0,0,0,1.3-.1l.1,2.188a7.153,7.153,0,0,1-2.3.3,3.4,3.4,0,0,1-2.7-1.094c-.7-.7-1-1.89-1-3.58v-6.664h-1.9V145.34h1.9v-2.387l2.9-.9v3.282h3.3Zm-1.7-11.338a3.272,3.272,0,0,1-3.4-3.481,3.324,3.324,0,0,1,3.5-3.58,3.532,3.532,0,0,1-.1,7.061ZM160,156.877a6.493,6.493,0,0,1-4.9,1.989,5.983,5.983,0,0,1-4.7-1.89,6.765,6.765,0,0,1-1.7-4.873,7.159,7.159,0,0,1,1.8-5.072,6.271,6.271,0,0,1,4.8-1.989,5.983,5.983,0,0,1,4.7,1.89,7.229,7.229,0,0,1,1.7,4.873A6.687,6.687,0,0,1,160,156.877Zm3.1-27.649h1v-1.293l1.7-.5v1.79h1.6v1.293h-1.6V133.5c0,.8.2,1.293.9,1.293a1.49,1.49,0,0,0,.7-.1v1.293a3.937,3.937,0,0,1-1.3.2,1.892,1.892,0,0,1-1.5-.6,2.527,2.527,0,0,1-.5-1.89v-3.183h-1v-1.293Zm7.6,18.7a2.783,2.783,0,0,0-.9-.1,2.856,2.856,0,0,0-2.4,1.193,4.365,4.365,0,0,0-.7,2.586v6.962h-3v-9.051c0-1.492,0-2.884-.1-4.177h2.6l.1,2.486h.1a4.059,4.059,0,0,1,1.5-2.089,3.536,3.536,0,0,1,2.1-.7h.7v2.884Zm.4-16.013v4.078h-1.7v-9.946h1.7v4.078h0a2.357,2.357,0,0,1,.9-.8,2.674,2.674,0,0,1,1.2-.3c1.2,0,2.4.8,2.4,2.984v3.978h-1.7v-3.879c0-.995-.4-1.691-1.3-1.691a1.542,1.542,0,0,0-1.4.995A1.076,1.076,0,0,0,171.1,131.913ZM183.3,152.7h-8.9a3.807,3.807,0,0,0,1.3,2.984,4.39,4.39,0,0,0,2.9.9,10.511,10.511,0,0,0,3.6-.6l.5,2.089a10.4,10.4,0,0,1-4.5.8,6.59,6.59,0,0,1-4.9-1.79,6.514,6.514,0,0,1-1.8-4.873,8.006,8.006,0,0,1,1.6-4.973,5.817,5.817,0,0,1,4.7-2.089,5.114,5.114,0,0,1,4.4,2.089,6.9,6.9,0,0,1,1.2,4.177A5.228,5.228,0,0,1,183.3,152.7Zm-61.1-22.278a1.5,1.5,0,0,0-1.5,1.293,4.288,4.288,0,0,0-.1.5V133.7a1.591,1.591,0,0,0,1.5,1.193c1.1,0,1.7-.9,1.7-2.288C124,131.416,123.4,130.421,122.2,130.421Zm12.5-.2a1.721,1.721,0,0,0-1.6,1.691h3C136.1,131.316,135.8,130.222,134.7,130.222Zm11.6.1c-1.2,0-1.7,1.193-1.7,2.288,0,1.293.7,2.288,1.7,2.288s1.7-.995,1.7-2.288C148,131.515,147.5,130.322,146.3,130.322ZM113,134a.9.9,0,0,0,1,.995,1.624,1.624,0,0,0,1.4-.9v-1.293C114.2,132.709,113,132.908,113,134Zm67.3-3.779a1.721,1.721,0,0,0-1.6,1.691h3A1.41,1.41,0,0,0,180.3,130.222Z" transform="translate(-37.3 -116)"/></svg>