<svg xmlns="http://www.w3.org/2000/svg" width="41.791" height="41.058" viewBox="0 0 41.791 41.058"><defs><style>.a{fill:#dbb562;}</style></defs><path class="a" d="M49.182,37.452a2.912,2.912,0,0,1,.4-1.466,4.048,4.048,0,0,1,.252-.373A19.475,19.475,0,0,0,53.148,24.76c.036-11.082-9.315-20.072-20.877-20.072A20.734,20.734,0,0,0,11.8,20.661a19.315,19.315,0,0,0-.445,4.111A20.388,20.388,0,0,0,31.91,45.1a24.753,24.753,0,0,0,5.673-.925c1.358-.373,2.7-.865,3.053-1a3.178,3.178,0,0,1,1.118-.2,3.125,3.125,0,0,1,1.214.24l6.815,2.416a1.625,1.625,0,0,0,.469.12.957.957,0,0,0,.962-.962,1.544,1.544,0,0,0-.06-.325Z" transform="translate(-11.357 -4.688)"/></svg>