<svg xmlns="http://www.w3.org/2000/svg" xmlns:xlink="http://www.w3.org/1999/xlink" width="227.384" height="33.368" viewBox="0 0 227.384 33.368"><defs><style>.a{fill:url(#a);}</style><linearGradient id="a" x1="0.009" y1="0.5" x2="1" y2="0.5" gradientUnits="objectBoundingBox"><stop offset="0" stop-color="#613f00"/><stop offset="1" stop-color="#c27d00"/></linearGradient></defs><path class="a" d="M-108.287-31.08v.688a5.035,5.035,0,0,0-1.617,1.342,8.455,8.455,0,0,0-1.479,3.1l-5.951,19.264q-.344-.034-.722-.052t-.791-.017q-.344,0-.74.017t-.74.052l-7.224-21.982A2.691,2.691,0,0,0-128.325-30a1.849,1.849,0,0,0-1.049-.4v-.688q1.066.034,2.511.069t2.924.034q1.548,0,2.924-.034t2.236-.069v.688a5.733,5.733,0,0,0-1.651.241.946.946,0,0,0-.671.808,4.482,4.482,0,0,0,.327,1.84l4.782,14.62-.894,1.754,3.681-11.73a14.744,14.744,0,0,0,.86-4.455,3.134,3.134,0,0,0-.808-2.339,3.252,3.252,0,0,0-2.184-.74v-.688q1.273.034,2.288.069t2.116.034q.722,0,1.428-.034T-108.287-31.08Zm-24.7,0v.688a1.14,1.14,0,0,0-.894.55,1.747,1.747,0,0,0-.155,1.084,6.873,6.873,0,0,0,.292,1.256l5.194,14.964-.929,1.342,4.266-12.006.482.963-5.332,15.549q-.344-.034-.74-.052t-.774-.017q-.378,0-.757.017t-.722.052l-7.843-21.5a3.8,3.8,0,0,0-1.032-1.7,2.021,2.021,0,0,0-1.066-.5v-.688q1.1.034,2.649.069t2.958.034q1.41,0,2.546-.034T-132.986-31.08Zm31.854,6.054a6.276,6.276,0,0,1,4.747,1.789q1.72,1.789,1.72,5.882h-11.042l-.034-.654h6.4a16.969,16.969,0,0,0-.138-3.113,6.96,6.96,0,0,0-.671-2.288,1.381,1.381,0,0,0-1.221-.86q-1.032,0-1.754,1.479a14,14,0,0,0-.894,5.022l.138.241a4.318,4.318,0,0,0-.069.774v.843a9.338,9.338,0,0,0,.636,3.784,4.305,4.305,0,0,0,1.6,2,3.794,3.794,0,0,0,2,.585,6.171,6.171,0,0,0,2.047-.43,5.024,5.024,0,0,0,2.288-2.081l.585.206a8.618,8.618,0,0,1-1.29,2.632,7.537,7.537,0,0,1-2.322,2.133,6.523,6.523,0,0,1-3.406.843,8.549,8.549,0,0,1-4.059-.946,6.726,6.726,0,0,1-2.838-2.993,11.745,11.745,0,0,1-1.049-5.349,11.216,11.216,0,0,1,1.135-5.366,7.308,7.308,0,0,1,3.1-3.113A9.437,9.437,0,0,1-101.132-25.026Zm25.628-8.6v23.117a4.4,4.4,0,0,0,.464,2.288,1.739,1.739,0,0,0,1.6.74v.722q-1.066-.1-2.133-.1-1.548,0-2.924.1a17.433,17.433,0,0,0-2.58.378V-29.5a4.7,4.7,0,0,0-.43-2.288,1.727,1.727,0,0,0-1.634-.74v-.722q1.1.1,2.133.1,1.582,0,2.958-.12A22.292,22.292,0,0,0-75.5-33.626Zm-9.254,8.6a7.177,7.177,0,0,1,2.614.43,4.026,4.026,0,0,1,1.823,1.428l-.413.344a2.7,2.7,0,0,0-1.084-.86,3.3,3.3,0,0,0-1.324-.275q-1.651,0-2.563,2.047a16.283,16.283,0,0,0-.912,6.278,23.556,23.556,0,0,0,.361,4.661,5.155,5.155,0,0,0,1,2.391,1.91,1.91,0,0,0,1.428.688A2.687,2.687,0,0,0-81.919-8.7a2.953,2.953,0,0,0,.877-2.15l.1,1.445a5.173,5.173,0,0,1-1.7,2.374,4.577,4.577,0,0,1-2.769.791,6.654,6.654,0,0,1-3.595-1,6.616,6.616,0,0,1-2.511-3.079,13.638,13.638,0,0,1-.912-5.418,11.981,11.981,0,0,1,.98-5.177,6.954,6.954,0,0,1,2.718-3.079A7.63,7.63,0,0,1-84.757-25.026Zm30-8.6v23.117A4.4,4.4,0,0,0-54.3-8.222a1.739,1.739,0,0,0,1.6.74v.722q-1.066-.1-2.133-.1-1.548,0-2.924.1a17.433,17.433,0,0,0-2.58.378V-29.5a4.7,4.7,0,0,0-.43-2.288,1.727,1.727,0,0,0-1.634-.74v-.722q1.1.1,2.133.1,1.582,0,2.958-.12A22.292,22.292,0,0,0-54.76-33.626Zm-9.254,8.6a7.177,7.177,0,0,1,2.614.43,4.026,4.026,0,0,1,1.823,1.428l-.413.344a2.7,2.7,0,0,0-1.084-.86A3.3,3.3,0,0,0-62.4-23.96q-1.651,0-2.563,2.047a16.283,16.283,0,0,0-.912,6.278,23.557,23.557,0,0,0,.361,4.661,5.155,5.155,0,0,0,1,2.391,1.909,1.909,0,0,0,1.428.688A2.687,2.687,0,0,0-61.176-8.7a2.953,2.953,0,0,0,.877-2.15l.1,1.445a5.173,5.173,0,0,1-1.7,2.374,4.577,4.577,0,0,1-2.769.791,6.653,6.653,0,0,1-3.595-1,6.616,6.616,0,0,1-2.511-3.079,13.638,13.638,0,0,1-.912-5.418,11.981,11.981,0,0,1,.98-5.177,6.954,6.954,0,0,1,2.718-3.079A7.63,7.63,0,0,1-64.014-25.026Zm17.3-8.5a3.972,3.972,0,0,1,2.528.722,2.518,2.518,0,0,1,.912,2.1,2.518,2.518,0,0,1-.912,2.1,3.972,3.972,0,0,1-2.528.722,3.972,3.972,0,0,1-2.528-.722,2.518,2.518,0,0,1-.912-2.1,2.518,2.518,0,0,1,.912-2.1A3.972,3.972,0,0,1-46.711-33.523Zm3.027,8.6v15a3.019,3.019,0,0,0,.464,1.961,2.076,2.076,0,0,0,1.6.516v.722q-.688-.034-2.03-.086t-2.718-.052q-1.376,0-2.8.052t-2.15.086v-.722a2.076,2.076,0,0,0,1.6-.516,3.019,3.019,0,0,0,.464-1.961v-10.87a4.546,4.546,0,0,0-.447-2.288,1.732,1.732,0,0,0-1.617-.74v-.722q1.1.1,2.133.1,1.548,0,2.941-.12A22.249,22.249,0,0,0-43.684-24.923Zm16.65-.1a6.438,6.438,0,0,1,2.425.378,3.5,3.5,0,0,1,1.393.963A4.13,4.13,0,0,1-22.407-22a11.957,11.957,0,0,1,.258,2.786v9.288a3.019,3.019,0,0,0,.464,1.961,2.076,2.076,0,0,0,1.6.516v.722q-.688-.034-2.047-.086t-2.632-.052q-1.41,0-2.718.052t-1.961.086v-.722A1.559,1.559,0,0,0-28.1-7.964a3.555,3.555,0,0,0,.378-1.961V-20.864a4.72,4.72,0,0,0-.172-1.359,1.57,1.57,0,0,0-.585-.86,2,2,0,0,0-1.17-.292,2.738,2.738,0,0,0-2.064.912,3.248,3.248,0,0,0-.86,2.322V-9.924a3.555,3.555,0,0,0,.378,1.961,1.559,1.559,0,0,0,1.342.516v.722q-.654-.034-1.892-.086t-2.511-.052q-1.41,0-2.821.052t-2.133.086v-.722a2.076,2.076,0,0,0,1.6-.516,3.019,3.019,0,0,0,.464-1.961v-10.87a4.546,4.546,0,0,0-.447-2.288,1.732,1.732,0,0,0-1.617-.74v-.722q1.1.1,2.133.1,1.548,0,2.941-.12a22.249,22.249,0,0,0,2.563-.361v2.786a4.781,4.781,0,0,1,2.253-2.236A7.814,7.814,0,0,1-27.034-25.026ZM-12.38-.258A18.878,18.878,0,0,1-16.3-.619a6.605,6.605,0,0,1-2.614-1.066,2.084,2.084,0,0,1-.929-1.7,2.464,2.464,0,0,1,.963-1.875,6.983,6.983,0,0,1,2.958-1.324l.31.55a3.74,3.74,0,0,0-.826,1.152,2.848,2.848,0,0,0-.241,1.118A2.389,2.389,0,0,0-15.407-1.6,6.872,6.872,0,0,0-11.9-.843a7.569,7.569,0,0,0,2.683-.43A3.928,3.928,0,0,0-7.46-2.494a2.926,2.926,0,0,0,.619-1.858,2.213,2.213,0,0,0-.74-1.686,4.556,4.556,0,0,0-2.976-.688h-2A7.632,7.632,0,0,1-15.1-7.1,3.631,3.631,0,0,1-16.731-8.17,2.613,2.613,0,0,1-17.3-9.89a3.411,3.411,0,0,1,1.2-2.632,12.374,12.374,0,0,1,3.337-2.012l.31.275a6.536,6.536,0,0,0-.98.722,1.4,1.4,0,0,0-.464,1.1q0,1.1,1.307,1.1h3.543a10.5,10.5,0,0,1,5.074,1.084A3.805,3.805,0,0,1-1.991-6.622a5.108,5.108,0,0,1-1.1,3.165A7.5,7.5,0,0,1-6.48-1.135,16.713,16.713,0,0,1-12.38-.258Zm.447-13.794a9.026,9.026,0,0,1-5.108-1.342,4.65,4.65,0,0,1-2.012-4.162,4.6,4.6,0,0,1,2.012-4.162,9.207,9.207,0,0,1,5.108-1.307,9.226,9.226,0,0,1,5.091,1.307,4.586,4.586,0,0,1,2.03,4.162,4.637,4.637,0,0,1-2.03,4.162A9.045,9.045,0,0,1-11.932-14.052Zm0-.619q.757,0,1.221-1.066a10.732,10.732,0,0,0,.464-3.818,10.577,10.577,0,0,0-.464-3.8q-.464-1.049-1.221-1.049-.791,0-1.238,1.049a10.956,10.956,0,0,0-.447,3.8,11.116,11.116,0,0,0,.447,3.818Q-12.724-14.672-11.932-14.672Zm5.47-7.362-.722-.241a5.174,5.174,0,0,1,1.7-2.288,4.082,4.082,0,0,1,2.528-.877,2.2,2.2,0,0,1,1.7.619A2.3,2.3,0,0,1-.684-23.2a2.072,2.072,0,0,1-.533,1.531,1.718,1.718,0,0,1-1.256.533,1.734,1.734,0,0,1-1.135-.43,1.8,1.8,0,0,1-.585-1.307,4.383,4.383,0,0,1,.619-2.219l.206.206a5.252,5.252,0,0,0-1.944,1.1A5.486,5.486,0,0,0-6.463-22.033ZM8.329-31.08q.929.034,2.477.069t3.1.034q1.686,0,3.251-.034t2.219-.034q4.472,0,6.691,1.514a4.545,4.545,0,0,1,2.219,3.887,4.6,4.6,0,0,1-.791,2.46,7.1,7.1,0,0,1-2.425,2.236,11.344,11.344,0,0,1-4.18,1.359v.069a15,15,0,0,1,5.384,1.152,7.036,7.036,0,0,1,2.907,2.253A4.747,4.747,0,0,1,30.07-13.4a5.525,5.525,0,0,1-2.649,5.005,13.549,13.549,0,0,1-7.258,1.668q-.826,0-2.408-.052t-3.784-.052q-1.617,0-3.165.017t-2.477.086v-.688a5.718,5.718,0,0,0,1.6-.275,1.2,1.2,0,0,0,.722-.826,6.8,6.8,0,0,0,.189-1.858V-27.434a6.774,6.774,0,0,0-.189-1.875,1.247,1.247,0,0,0-.722-.826,4.754,4.754,0,0,0-1.6-.258Zm10.733.688q-1.273,0-1.634.585a5.131,5.131,0,0,0-.361,2.374v17.062a3.984,3.984,0,0,0,.447,2.322,2.407,2.407,0,0,0,1.858.533,3.553,3.553,0,0,0,3.216-1.565A8.186,8.186,0,0,0,23.6-13.536a5.942,5.942,0,0,0-1.29-4.094q-1.29-1.445-4.283-1.445H15.312v-.585h2.958a3.114,3.114,0,0,0,2.27-.774,4.171,4.171,0,0,0,1.1-2.064,11.843,11.843,0,0,0,.31-2.769,8.578,8.578,0,0,0-.671-3.836A2.31,2.31,0,0,0,19.062-30.392ZM38.98-33.626v23.7a3.019,3.019,0,0,0,.464,1.961,2.076,2.076,0,0,0,1.6.516v.722q-.654-.034-2-.086T36.3-6.863q-1.376,0-2.8.052t-2.15.086v-.722a2.076,2.076,0,0,0,1.6-.516,3.019,3.019,0,0,0,.464-1.961V-29.532a4.609,4.609,0,0,0-.43-2.253,1.727,1.727,0,0,0-1.634-.74v-.722q1.1.1,2.133.1,1.582,0,2.958-.12A22.292,22.292,0,0,0,38.98-33.626Zm8.118.1a3.972,3.972,0,0,1,2.528.722,2.518,2.518,0,0,1,.912,2.1,2.518,2.518,0,0,1-.912,2.1,3.972,3.972,0,0,1-2.528.722A3.972,3.972,0,0,1,44.57-28.6a2.518,2.518,0,0,1-.912-2.1,2.518,2.518,0,0,1,.912-2.1A3.972,3.972,0,0,1,47.1-33.523Zm3.027,8.6v15a3.019,3.019,0,0,0,.464,1.961,2.076,2.076,0,0,0,1.6.516v.722q-.688-.034-2.03-.086t-2.718-.052q-1.376,0-2.8.052t-2.15.086v-.722a2.076,2.076,0,0,0,1.6-.516,3.019,3.019,0,0,0,.464-1.961v-10.87a4.546,4.546,0,0,0-.447-2.288,1.732,1.732,0,0,0-1.617-.74v-.722q1.1.1,2.133.1,1.548,0,2.941-.12A22.25,22.25,0,0,0,50.125-24.923Zm17.991.241L59.964-7.241h1.17a5.9,5.9,0,0,0,2.546-.585,5.13,5.13,0,0,0,2.116-1.961,8.177,8.177,0,0,0,1.049-3.818h.688q0,2.614.034,4.248t.1,2.769q-1.548-.069-3.251-.1T61-6.725q-1.754,0-3.629.052t-3.595.12l8.153-17.441H60.617a5.822,5.822,0,0,0-2.511.568,4.647,4.647,0,0,0-2.012,1.961,9.256,9.256,0,0,0-1.015,3.836h-.722q0-2.649-.034-4.283t-.1-2.735q1.617.069,3.32.1t3.354.034q1.823,0,3.681-.052T68.116-24.682Zm16.271,0L76.235-7.241H77.4a5.9,5.9,0,0,0,2.546-.585,5.13,5.13,0,0,0,2.116-1.961,8.177,8.177,0,0,0,1.049-3.818H83.8q0,2.614.034,4.248t.1,2.769q-1.548-.069-3.251-.1t-3.423-.034q-1.754,0-3.629.052t-3.595.12L78.2-23.994H76.888a5.822,5.822,0,0,0-2.511.568,4.647,4.647,0,0,0-2.012,1.961A9.256,9.256,0,0,0,71.35-17.63h-.722q0-2.649-.034-4.283t-.1-2.735q1.617.069,3.32.1t3.354.034q1.823,0,3.681-.052T84.388-24.682Z" transform="translate(142.997 33.626)"/></svg>