<svg xmlns="http://www.w3.org/2000/svg" width="137.612" height="47.068" viewBox="0 0 137.612 47.068"><defs><style>.a{opacity:0.7;}.b{fill:#fff;}</style></defs><g class="a" transform="translate(-98 -4200)"><g transform="translate(153.678 4200)"><path class="b" d="M9.008,47.811a6.907,6.907,0,1,1,5.656-2.423,5.309,5.309,0,0,0,2.5.839,9.4,9.4,0,0,0-.238-10.951A9.44,9.44,0,0,0,13.163,32.3a9.286,9.286,0,0,0-2.568-.708c1.79-1.318,2.475-2.422,2.475-3.385A2.092,2.092,0,0,0,9.4,26.826,2.092,2.092,0,0,0,5.735,28.2c0,.963.685,2.068,2.475,3.386a9.4,9.4,0,1,0,3.3,18.493,11.044,11.044,0,0,1-2.5-2.272Z" transform="translate(-0.001 -26.111)"/><path class="b" d="M164.221,128.715a9.423,9.423,0,0,0-2.106.236,11.047,11.047,0,0,1,2.5,2.272,6.907,6.907,0,1,1-5.656,2.423,5.309,5.309,0,0,0-2.5-.839,9.4,9.4,0,0,0,.238,10.951,9.439,9.439,0,0,0,3.762,2.979,9.4,9.4,0,1,0,3.761-18.022Z" transform="translate(-146.665 -123.311)"/></g><path class="b" d="M-121.99-32.085v.416a3.047,3.047,0,0,0-.978.812,5.117,5.117,0,0,0-.9,1.874l-3.6,11.659q-.208-.021-.437-.031t-.479-.01q-.208,0-.448.01t-.448.031l-4.372-13.3a1.629,1.629,0,0,0-.468-.8,1.119,1.119,0,0,0-.635-.239v-.416q.645.021,1.52.042t1.77.021q.937,0,1.77-.021t1.353-.042v.416a3.469,3.469,0,0,0-1,.146.573.573,0,0,0-.406.489,2.713,2.713,0,0,0,.2,1.114l2.894,8.848-.541,1.062,2.228-7.1a8.923,8.923,0,0,0,.52-2.7,1.9,1.9,0,0,0-.489-1.416,1.968,1.968,0,0,0-1.322-.448v-.416q.77.021,1.384.042t1.28.021q.437,0,.864-.021T-121.99-32.085Zm-14.948,0v.416a.69.69,0,0,0-.541.333,1.058,1.058,0,0,0-.094.656,4.159,4.159,0,0,0,.177.76l3.144,9.056-.562.812,2.582-7.266.291.583-3.227,9.41q-.208-.021-.448-.031t-.468-.01q-.229,0-.458.01t-.437.031l-4.747-13.012a2.3,2.3,0,0,0-.625-1.031,1.223,1.223,0,0,0-.645-.3v-.416q.666.021,1.6.042t1.79.021q.854,0,1.541-.021T-136.938-32.085Zm19.278,3.664a3.8,3.8,0,0,1,2.873,1.083,5.029,5.029,0,0,1,1.041,3.56h-6.683l-.021-.4h3.872a10.27,10.27,0,0,0-.083-1.884,4.212,4.212,0,0,0-.406-1.384.836.836,0,0,0-.739-.52q-.625,0-1.062.9a8.474,8.474,0,0,0-.541,3.04l.083.146a2.613,2.613,0,0,0-.042.468v.51a5.651,5.651,0,0,0,.385,2.29,2.606,2.606,0,0,0,.968,1.207,2.3,2.3,0,0,0,1.207.354,3.735,3.735,0,0,0,1.239-.26,3.041,3.041,0,0,0,1.384-1.26l.354.125a5.215,5.215,0,0,1-.781,1.593,4.561,4.561,0,0,1-1.405,1.291,3.948,3.948,0,0,1-2.061.51,5.174,5.174,0,0,1-2.457-.573,4.071,4.071,0,0,1-1.718-1.811,7.108,7.108,0,0,1-.635-3.237,6.788,6.788,0,0,1,.687-3.248,4.423,4.423,0,0,1,1.874-1.884A5.711,5.711,0,0,1-117.66-28.421Zm15.51-5.2v13.99a2.665,2.665,0,0,0,.281,1.384,1.052,1.052,0,0,0,.968.448v.437q-.645-.062-1.291-.062-.937,0-1.77.062a10.55,10.55,0,0,0-1.561.229v-13.99a2.844,2.844,0,0,0-.26-1.384,1.045,1.045,0,0,0-.989-.448V-33.4q.666.062,1.291.062.958,0,1.79-.073A13.49,13.49,0,0,0-102.15-33.626Zm-5.6,5.2a4.344,4.344,0,0,1,1.582.26,2.437,2.437,0,0,1,1.1.864l-.25.208a1.635,1.635,0,0,0-.656-.52,2,2,0,0,0-.8-.167,1.721,1.721,0,0,0-1.551,1.239,9.855,9.855,0,0,0-.552,3.8,14.256,14.256,0,0,0,.219,2.821,3.12,3.12,0,0,0,.6,1.447,1.156,1.156,0,0,0,.864.416,1.626,1.626,0,0,0,1.155-.489,1.787,1.787,0,0,0,.531-1.3l.062.874a3.131,3.131,0,0,1-1.031,1.437,2.77,2.77,0,0,1-1.676.479,4.027,4.027,0,0,1-2.176-.6,4,4,0,0,1-1.52-1.863,8.254,8.254,0,0,1-.552-3.279,7.251,7.251,0,0,1,.593-3.133,4.209,4.209,0,0,1,1.645-1.863A4.617,4.617,0,0,1-107.75-28.421Zm18.154-5.2v13.99a2.665,2.665,0,0,0,.281,1.384,1.052,1.052,0,0,0,.968.448v.437q-.645-.062-1.291-.062-.937,0-1.77.062a10.55,10.55,0,0,0-1.561.229v-13.99a2.844,2.844,0,0,0-.26-1.384,1.045,1.045,0,0,0-.989-.448V-33.4q.666.062,1.291.062.958,0,1.79-.073A13.491,13.491,0,0,0-89.6-33.626Zm-5.6,5.2a4.344,4.344,0,0,1,1.582.26,2.437,2.437,0,0,1,1.1.864l-.25.208a1.635,1.635,0,0,0-.656-.52,2,2,0,0,0-.8-.167,1.721,1.721,0,0,0-1.551,1.239,9.855,9.855,0,0,0-.552,3.8,14.257,14.257,0,0,0,.219,2.821,3.12,3.12,0,0,0,.6,1.447,1.156,1.156,0,0,0,.864.416,1.626,1.626,0,0,0,1.155-.489,1.787,1.787,0,0,0,.531-1.3l.062.874a3.131,3.131,0,0,1-1.031,1.437,2.77,2.77,0,0,1-1.676.479,4.027,4.027,0,0,1-2.176-.6,4,4,0,0,1-1.52-1.863,8.254,8.254,0,0,1-.552-3.279,7.251,7.251,0,0,1,.593-3.133A4.209,4.209,0,0,1-97.6-27.8,4.617,4.617,0,0,1-95.2-28.421Zm10.472-5.142a2.4,2.4,0,0,1,1.53.437,1.524,1.524,0,0,1,.552,1.27,1.524,1.524,0,0,1-.552,1.27,2.4,2.4,0,0,1-1.53.437,2.4,2.4,0,0,1-1.53-.437,1.524,1.524,0,0,1-.552-1.27,1.524,1.524,0,0,1,.552-1.27A2.4,2.4,0,0,1-84.725-33.564Zm1.832,5.2v9.077a1.827,1.827,0,0,0,.281,1.187,1.256,1.256,0,0,0,.968.312v.437q-.416-.021-1.228-.052t-1.645-.031q-.833,0-1.7.031t-1.3.052v-.437a1.256,1.256,0,0,0,.968-.312,1.827,1.827,0,0,0,.281-1.187v-6.579a2.751,2.751,0,0,0-.271-1.384,1.048,1.048,0,0,0-.978-.448v-.437q.666.062,1.291.062.937,0,1.78-.073A13.465,13.465,0,0,0-82.893-28.359Zm10.076-.062a3.9,3.9,0,0,1,1.468.229,2.117,2.117,0,0,1,.843.583,2.5,2.5,0,0,1,.489,1.02A7.237,7.237,0,0,1-69.86-24.9v5.621a1.827,1.827,0,0,0,.281,1.187,1.256,1.256,0,0,0,.968.312v.437q-.416-.021-1.239-.052t-1.593-.031q-.854,0-1.645.031t-1.187.052v-.437a.944.944,0,0,0,.812-.312,2.152,2.152,0,0,0,.229-1.187V-25.9a2.856,2.856,0,0,0-.1-.822.95.95,0,0,0-.354-.52,1.212,1.212,0,0,0-.708-.177,1.657,1.657,0,0,0-1.249.552,1.966,1.966,0,0,0-.52,1.405v6.183a2.152,2.152,0,0,0,.229,1.187.944.944,0,0,0,.812.312v.437q-.4-.021-1.145-.052t-1.52-.031q-.854,0-1.707.031t-1.291.052v-.437a1.256,1.256,0,0,0,.968-.312,1.827,1.827,0,0,0,.281-1.187v-6.579a2.751,2.751,0,0,0-.271-1.384,1.048,1.048,0,0,0-.978-.448v-.437q.666.062,1.291.062.937,0,1.78-.073a13.465,13.465,0,0,0,1.551-.219v1.686A2.893,2.893,0,0,1-74.8-28.026,4.729,4.729,0,0,1-72.816-28.421Zm8.869,14.99a11.425,11.425,0,0,1-2.373-.219A4,4,0,0,1-67.9-14.3a1.261,1.261,0,0,1-.562-1.031,1.491,1.491,0,0,1,.583-1.135,4.226,4.226,0,0,1,1.79-.8l.187.333a2.263,2.263,0,0,0-.5.7,1.724,1.724,0,0,0-.146.677,1.446,1.446,0,0,0,.77,1.312,4.159,4.159,0,0,0,2.124.458,4.581,4.581,0,0,0,1.624-.26,2.378,2.378,0,0,0,1.062-.739,1.771,1.771,0,0,0,.375-1.124,1.34,1.34,0,0,0-.448-1.02,2.758,2.758,0,0,0-1.8-.416h-1.207a4.619,4.619,0,0,1-1.541-.229,2.2,2.2,0,0,1-.989-.645,1.581,1.581,0,0,1-.344-1.041,2.065,2.065,0,0,1,.729-1.593,7.489,7.489,0,0,1,2.019-1.218l.187.167a3.955,3.955,0,0,0-.593.437.847.847,0,0,0-.281.666q0,.666.791.666h2.144a6.354,6.354,0,0,1,3.071.656,2.3,2.3,0,0,1,1.2,2.2,3.091,3.091,0,0,1-.666,1.915,4.541,4.541,0,0,1-2.051,1.405A10.115,10.115,0,0,1-63.948-13.432Zm.271-8.348a5.463,5.463,0,0,1-3.092-.812,2.814,2.814,0,0,1-1.218-2.519,2.783,2.783,0,0,1,1.218-2.519,5.572,5.572,0,0,1,3.092-.791,5.584,5.584,0,0,1,3.081.791,2.776,2.776,0,0,1,1.228,2.519A2.806,2.806,0,0,1-60.6-22.592,5.474,5.474,0,0,1-63.677-21.78Zm0-.375q.458,0,.739-.645a6.5,6.5,0,0,0,.281-2.311,6.4,6.4,0,0,0-.281-2.3q-.281-.635-.739-.635-.479,0-.749.635a6.63,6.63,0,0,0-.271,2.3,6.728,6.728,0,0,0,.271,2.311Q-64.156-22.155-63.677-22.155Zm3.31-4.455-.437-.146a3.131,3.131,0,0,1,1.031-1.384,2.47,2.47,0,0,1,1.53-.531,1.33,1.33,0,0,1,1.031.375,1.391,1.391,0,0,1,.344.978,1.254,1.254,0,0,1-.323.926,1.04,1.04,0,0,1-.76.323,1.049,1.049,0,0,1-.687-.26,1.089,1.089,0,0,1-.354-.791,2.652,2.652,0,0,1,.375-1.343l.125.125a3.178,3.178,0,0,0-1.176.666A3.32,3.32,0,0,0-60.367-26.61Zm8.952-5.475q.562.021,1.5.042t1.874.021q1.02,0,1.967-.021t1.343-.021a7.237,7.237,0,0,1,4.049.916A2.751,2.751,0,0,1-39.34-28.8a2.787,2.787,0,0,1-.479,1.489,4.3,4.3,0,0,1-1.468,1.353,6.866,6.866,0,0,1-2.529.822v.042a9.077,9.077,0,0,1,3.258.7A4.258,4.258,0,0,1-38.8-23.029a2.873,2.873,0,0,1,.541,1.645,3.344,3.344,0,0,1-1.6,3.029,8.2,8.2,0,0,1-4.393,1.01q-.5,0-1.457-.031T-48-17.408q-.978,0-1.915.01t-1.5.052v-.416a3.461,3.461,0,0,0,.968-.167.725.725,0,0,0,.437-.5,4.116,4.116,0,0,0,.115-1.124V-29.879a4.1,4.1,0,0,0-.115-1.135.755.755,0,0,0-.437-.5,2.877,2.877,0,0,0-.968-.156Zm6.5.416q-.77,0-.989.354a3.105,3.105,0,0,0-.219,1.437v10.326a2.411,2.411,0,0,0,.271,1.405,1.457,1.457,0,0,0,1.124.323,2.15,2.15,0,0,0,1.947-.947,4.954,4.954,0,0,0,.614-2.7,3.6,3.6,0,0,0-.781-2.477,3.328,3.328,0,0,0-2.592-.874h-1.645v-.354h1.79a1.884,1.884,0,0,0,1.374-.468,2.524,2.524,0,0,0,.666-1.249,7.167,7.167,0,0,0,.187-1.676,5.192,5.192,0,0,0-.406-2.321A1.4,1.4,0,0,0-44.919-31.669Zm12.054-1.957v14.344a1.827,1.827,0,0,0,.281,1.187,1.256,1.256,0,0,0,.968.312v.437q-.4-.021-1.207-.052t-1.665-.031q-.833,0-1.7.031t-1.3.052v-.437a1.256,1.256,0,0,0,.968-.312,1.827,1.827,0,0,0,.281-1.187V-31.149a2.789,2.789,0,0,0-.26-1.364,1.045,1.045,0,0,0-.989-.448V-33.4q.666.062,1.291.062.958,0,1.79-.073A13.491,13.491,0,0,0-32.865-33.626Zm4.913.062a2.4,2.4,0,0,1,1.53.437,1.524,1.524,0,0,1,.552,1.27,1.524,1.524,0,0,1-.552,1.27,2.4,2.4,0,0,1-1.53.437,2.4,2.4,0,0,1-1.53-.437,1.524,1.524,0,0,1-.552-1.27,1.524,1.524,0,0,1,.552-1.27A2.4,2.4,0,0,1-27.952-33.564Zm1.832,5.2v9.077a1.827,1.827,0,0,0,.281,1.187,1.256,1.256,0,0,0,.968.312v.437q-.416-.021-1.228-.052t-1.645-.031q-.833,0-1.7.031t-1.3.052v-.437a1.256,1.256,0,0,0,.968-.312,1.827,1.827,0,0,0,.281-1.187v-6.579a2.751,2.751,0,0,0-.271-1.384,1.048,1.048,0,0,0-.978-.448v-.437q.666.062,1.291.062.937,0,1.78-.073A13.466,13.466,0,0,0-26.12-28.359Zm10.888.146-4.934,10.555h.708a3.57,3.57,0,0,0,1.541-.354,3.1,3.1,0,0,0,1.28-1.187A4.949,4.949,0,0,0-16-21.509h.416q0,1.582.021,2.571t.062,1.676q-.937-.042-1.967-.062t-2.071-.021q-1.062,0-2.2.031t-2.176.073L-18.979-27.8h-.791a3.523,3.523,0,0,0-1.52.344,2.813,2.813,0,0,0-1.218,1.187,5.6,5.6,0,0,0-.614,2.321h-.437q0-1.6-.021-2.592t-.062-1.655q.978.042,2.009.062t2.03.021q1.1,0,2.228-.031T-15.232-28.213Zm9.847,0-4.934,10.555h.708a3.57,3.57,0,0,0,1.541-.354A3.1,3.1,0,0,0-6.79-19.2a4.949,4.949,0,0,0,.635-2.311h.416q0,1.582.021,2.571t.062,1.676q-.937-.042-1.967-.062t-2.071-.021q-1.062,0-2.2.031t-2.176.073L-9.132-27.8h-.791a3.523,3.523,0,0,0-1.52.344,2.813,2.813,0,0,0-1.218,1.187,5.6,5.6,0,0,0-.614,2.321h-.437q0-1.6-.021-2.592t-.062-1.655q.978.042,2.009.062t2.03.021q1.1,0,2.228-.031T-5.384-28.213Z" transform="translate(240.996 4260.5)"/></g></svg>