<svg xmlns="http://www.w3.org/2000/svg" width="34.286" height="24" viewBox="0 0 34.286 24"><defs><style>.a{fill:#dbb562;}</style></defs><path class="a" d="M5.143,12.536A3.429,3.429,0,1,0,1.714,9.107,3.432,3.432,0,0,0,5.143,12.536Zm24,0a3.429,3.429,0,1,0-3.429-3.429A3.432,3.432,0,0,0,29.143,12.536Zm1.714,1.714H27.429a3.418,3.418,0,0,0-2.416,1,7.836,7.836,0,0,1,4.023,5.861h3.536a1.712,1.712,0,0,0,1.714-1.714V17.679A3.432,3.432,0,0,0,30.857,14.25Zm-13.714,0a6,6,0,1,0-6-6A6,6,0,0,0,17.143,14.25Zm4.114,1.714h-.445a8.284,8.284,0,0,1-7.339,0h-.445a6.173,6.173,0,0,0-6.171,6.171v1.543A2.572,2.572,0,0,0,9.429,26.25H24.857a2.572,2.572,0,0,0,2.571-2.571V22.136A6.173,6.173,0,0,0,21.257,15.964ZM9.273,15.246a3.418,3.418,0,0,0-2.416-1H3.429A3.432,3.432,0,0,0,0,17.679v1.714a1.712,1.712,0,0,0,1.714,1.714h3.53A7.856,7.856,0,0,1,9.273,15.246Z" transform="translate(0 -2.25)"/></svg>