<svg xmlns="http://www.w3.org/2000/svg" xmlns:xlink="http://www.w3.org/1999/xlink" width="44.545" height="40" viewBox="0 0 44.545 40"><defs><style>.a{fill:url(#a);}</style><linearGradient id="a" x1="0.387" y1="0.077" x2="1.209" y2="0.958" gradientUnits="objectBoundingBox"><stop offset="0" stop-color="#b08006"/><stop offset="1" stop-color="#5e460a"/></linearGradient></defs><path class="a" d="M14.884,61.967a11.413,11.413,0,1,1,9.346-4,8.773,8.773,0,0,0,4.128,1.386,15.538,15.538,0,0,0-.393-18.095,15.6,15.6,0,0,0-6.215-4.922,15.344,15.344,0,0,0-4.243-1.17c2.958-2.177,4.089-4,4.089-5.594a3.457,3.457,0,0,0-6.06-2.277,3.457,3.457,0,0,0-6.06,2.277c0,1.592,1.131,3.417,4.09,5.595a15.537,15.537,0,1,0,5.449,30.556,18.249,18.249,0,0,1-4.13-3.754Z" transform="translate(0 -26.111)"/><path class="a" d="M170.354,128.715a15.57,15.57,0,0,0-3.479.39,18.253,18.253,0,0,1,4.131,3.754,11.413,11.413,0,1,1-9.346,4,8.773,8.773,0,0,0-4.128-1.386,15.538,15.538,0,0,0,.393,18.095,15.6,15.6,0,0,0,6.215,4.922,15.537,15.537,0,1,0,6.214-29.778Z" transform="translate(-141.345 -119.786)"/></svg>