<svg xmlns="http://www.w3.org/2000/svg" width="169" height="55" viewBox="0 0 169 55"><defs><style>.a{fill:#fff;}</style></defs><path class="a" d="M370.3,116h-154a7.47,7.47,0,0,0-7.5,7.459v40.081A7.47,7.47,0,0,0,216.3,171h154a7.47,7.47,0,0,0,7.5-7.459V123.459A7.6,7.6,0,0,0,370.3,116Zm-67.1,11.04h1.7a2.024,2.024,0,0,1,1.1.3,1.043,1.043,0,0,1,.5.9,1.475,1.475,0,0,1-.6,1.293,2.42,2.42,0,0,1-1.5.4h-.2v1.79h-1V127.04Zm-8.7,2.387a11.362,11.362,0,0,0,.8-2.288h1.3c0,.1.3.9.8,2.288s.8,2.188.8,2.288H297a6.506,6.506,0,0,0-.3-1.293H295a8.58,8.58,0,0,0-.3,1.293h-1.1A19.26,19.26,0,0,1,294.5,129.427Zm-7.1-2.387h1.5a2.555,2.555,0,0,1,1.9.6,2.018,2.018,0,0,1,.6,1.492,2.767,2.767,0,0,1-.6,1.79,2.2,2.2,0,0,1-1.8.8h-1.4v-2.387C287.5,128.432,287.4,127.637,287.4,127.04Zm-2.2,0h1v4.575h-1V127.04Zm-4.9.6a2,2,0,0,1,1.6-.7,2.136,2.136,0,0,1,1.6.7,2.332,2.332,0,0,1,.6,1.691,2.39,2.39,0,0,1-.7,1.79,2,2,0,0,1-1.6.7,2.136,2.136,0,0,1-1.6-.7,2.332,2.332,0,0,1-.6-1.691A2.851,2.851,0,0,1,280.3,127.637Zm-9.9-.6h1.5a2.555,2.555,0,0,1,1.9.6,2.018,2.018,0,0,1,.6,1.492,2.767,2.767,0,0,1-.6,1.79,2.2,2.2,0,0,1-1.8.8h-1.4v-2.387C270.5,128.432,270.5,127.637,270.4,127.04Zm-5,0h1.1a8.082,8.082,0,0,0,.9,1.492,11.273,11.273,0,0,1,1.1,1.89h.1a7.008,7.008,0,0,1-.1-1.392V127.04h.9v4.575h-.9a6.309,6.309,0,0,0-1-1.492,8.183,8.183,0,0,1-1.2-1.989h-.1a7.008,7.008,0,0,1,.1,1.392v2.089h-.9c0-.7.1-1.492.1-2.387A17.541,17.541,0,0,1,265.4,127.04Zm-4.4,2.387a11.362,11.362,0,0,0,.8-2.288h1.3c0,.1.3.9.8,2.288s.8,2.188.8,2.288h-1.1a6.506,6.506,0,0,0-.3-1.293h-1.6a8.58,8.58,0,0,0-.3,1.293h-1.1C260.1,131.615,260.4,130.819,261,129.427Zm-37.5-1.691c7.2,3.978,14.4,7.957,21.5,12.034.3.2.3.3.1.5l-4.8,4.774c-.2.2-.3.3-.5,0-5.7-5.769-11.4-11.537-17.2-17.405l-.2-.2A5.328,5.328,0,0,1,223.5,127.736Zm-2.2,35.307a2.155,2.155,0,0,1-.8-1.79V145.439h0V129.825a2.22,2.22,0,0,1,.6-1.691c.2-.2.3-.2.5,0,3.5,3.58,7.1,7.161,10.6,10.741,2.3,2.288,4.6,4.674,6.9,6.962.2.2.2.3,0,.6l-16.8,16.709A.772.772,0,0,1,221.3,163.043Zm23.2-11.338c-6.7,3.68-13.4,7.26-20.1,10.94-.1.1-.2.2-.3.2,5.2-5.271,10.4-10.443,15.6-15.714.3-.3.5-.3.8,0,1.3,1.392,2.7,2.685,4,4.078C244.8,151.506,244.8,151.606,244.5,151.705Zm8.7-4.774c-.3.2-.7.4-1,.6-2,1.094-4.1,2.188-6.1,3.382-.3.2-.4.1-.7-.1-1.4-1.492-2.9-2.984-4.3-4.376-.2-.2-.2-.3,0-.5,1.7-1.691,3.4-3.382,5.1-4.973.2-.2.3-.2.6-.1,2,1.094,4,2.188,6,3.382a1.727,1.727,0,0,1,1.1,1.492A1.682,1.682,0,0,1,253.2,146.931Zm21.2,4.873a8.007,8.007,0,0,1-6,2.387,7.876,7.876,0,0,1-6-2.486,8.611,8.611,0,0,1,0-12.134,8.591,8.591,0,0,1,6-2.486,8.01,8.01,0,0,1,3.4.7,8.553,8.553,0,0,1,2.6,1.79l-1.4,1.392a5.562,5.562,0,0,0-4.5-1.89,6.456,6.456,0,0,0-4.5,1.79,6.7,6.7,0,0,0,0,9.349,6.456,6.456,0,0,0,4.5,1.79,6.355,6.355,0,0,0,4.6-1.79,4.983,4.983,0,0,0,1.4-3.282h-6v-1.989h8a4.816,4.816,0,0,1,.1,1.193C276.4,148.622,275.8,150.512,274.4,151.8Zm1.9-21.98v1.79h-1V127.04h1.6c1.1,0,1.6.4,1.6,1.094a1.171,1.171,0,0,1-.9,1.193v.1a1.694,1.694,0,0,1,.6.6,10.955,10.955,0,0,1,.7,1.691h-1c-.3-.8-.5-1.392-.6-1.591a.78.78,0,0,0-.7-.3ZM287.2,152.6a5.679,5.679,0,0,1-4.1,1.691A5.362,5.362,0,0,1,279,152.6a5.836,5.836,0,0,1-1.6-4.277,6,6,0,0,1,1.6-4.277,5.679,5.679,0,0,1,4.1-1.691,5.362,5.362,0,0,1,4.1,1.691,5.836,5.836,0,0,1,1.6,4.277A5.6,5.6,0,0,1,287.2,152.6Zm12.3,0a5.679,5.679,0,0,1-4.1,1.691,5.362,5.362,0,0,1-4.1-1.691,5.836,5.836,0,0,1-1.6-4.277,6,6,0,0,1,1.6-4.277,5.679,5.679,0,0,1,4.1-1.691,5.362,5.362,0,0,1,4.1,1.691,5.836,5.836,0,0,1,1.6,4.277A6,6,0,0,1,299.5,152.6Zm.6-22.676h-.2v1.79h-1v-4.575h1.7a2.024,2.024,0,0,1,1.1.3,1.043,1.043,0,0,1,.5.9,1.475,1.475,0,0,1-.6,1.293A3.355,3.355,0,0,1,300.1,129.924Zm13,23.373a5.673,5.673,0,0,1-1.7,4.376,5.944,5.944,0,0,1-4.1,1.492,5.2,5.2,0,0,1-3.3-.995,6.536,6.536,0,0,1-1.8-2.288l1.9-.8a2.878,2.878,0,0,0,1.2,1.492,3.392,3.392,0,0,0,2,.6,3.347,3.347,0,0,0,2.7-.995,3.673,3.673,0,0,0,1-2.785V152.3h0a5.547,5.547,0,0,1-1.6,1.392,4.4,4.4,0,0,1-2.3.6,5.179,5.179,0,0,1-3.8-1.691,5.836,5.836,0,0,1-1.6-4.277,6,6,0,0,1,1.6-4.277,5.179,5.179,0,0,1,3.8-1.691,5.959,5.959,0,0,1,2.3.5,4.382,4.382,0,0,1,1.6,1.392h.1v-1.591h2Zm-.3-22.179a2,2,0,0,1-1.6.7,2.136,2.136,0,0,1-1.6-.7,2.332,2.332,0,0,1-.6-1.691,2.39,2.39,0,0,1,.7-1.79,2,2,0,0,1,1.6-.7,2.136,2.136,0,0,1,1.6.7,2.332,2.332,0,0,1,.6,1.691A2.39,2.39,0,0,1,312.8,131.118Zm4.4,22.776h-2.1V137.582h2.1Zm1.1-22.179h-.9a6.309,6.309,0,0,0-1-1.492,8.183,8.183,0,0,1-1.2-1.989h-.1a7.008,7.008,0,0,1,.1,1.392v2.089h-.9c0-.7.1-1.492.1-2.387a13.966,13.966,0,0,0-.1-2.188h1.1a8.082,8.082,0,0,0,.9,1.492,11.274,11.274,0,0,1,1.1,1.89h.1a7.008,7.008,0,0,1-.1-1.392v-1.989h.9v2.188A19.015,19.015,0,0,0,318.3,131.714Zm11.1,17.007h-8.9a4.1,4.1,0,0,0,1.1,2.685,3.259,3.259,0,0,0,2.4.995,3.088,3.088,0,0,0,3.1-1.89l1.9.8a5.461,5.461,0,0,1-1.8,2.188,5.187,5.187,0,0,1-3.1.9A5.362,5.362,0,0,1,320,152.7a5.836,5.836,0,0,1-1.6-4.277,6.306,6.306,0,0,1,1.5-4.177,4.91,4.91,0,0,1,4-1.79,5.075,5.075,0,0,1,4,1.591,6.124,6.124,0,0,1,1.5,4.376Zm15.5-2.785a5.255,5.255,0,0,1-3.6,1.392h-3.5v6.564h-2.1V137.582h5.6a5.255,5.255,0,0,1,3.6,1.392,4.5,4.5,0,0,1,1.5,3.481A4.653,4.653,0,0,1,344.9,145.937Zm5,7.957h-2.1V137.582h2.1Zm11.2,0h-2V152.3H359a4.079,4.079,0,0,1-3.7,1.89,4.374,4.374,0,0,1-3-.995,3.4,3.4,0,0,1-1.2-2.685,3.529,3.529,0,0,1,1.4-2.884,5.605,5.605,0,0,1,3.5-.995,5.362,5.362,0,0,1,3,.7v-.3a2.769,2.769,0,0,0-.8-1.989,3.15,3.15,0,0,0-2.1-.7,3.3,3.3,0,0,0-1.7.4,2.326,2.326,0,0,0-1,1.193l-1.9-.8a5.228,5.228,0,0,1,1.5-1.89,4.878,4.878,0,0,1,3-.9,5.171,5.171,0,0,1,3.6,1.293,4.554,4.554,0,0,1,1.4,3.58v6.664Zm4.6,4.873h-2.2l2.6-5.669-4.6-10.443h2.3l3.3,8.056h0l3.3-8.056h2.3Z" transform="translate(-208.8 -116)"/></svg>